<svg width="286" height="40" viewBox="0 0 286 40" fill="none" xmlns="http://www.w3.org/2000/svg">
<g clip-path="url(#clip0_12_352)">
<path d="M117.5 37V29H120.5V40H96.5V29H99.5V37H117.5Z" fill="#BCBBBB"/>
<path d="M101.9 29.1L115.5 31.1L115.6 28.7L102.5 26L102 29L101.9 29.1ZM103.7 22.3L115.7 27.9L116.8 25.5L104.8 19.9L103.7 22.3ZM107.1 16.4L117.3 24.9L119 22.9L108.8 14.4L107.1 16.4ZM113.6 10.2L111.5 11.8L119.4 22.4L121.5 20.8L113.6 10.2ZM101.5 35H115.5V32H101.5V35Z" fill="#F48024"/>
<path d="M130.5 28.9L128.8 28.7C127.5 28.7 127 28.1 127 27.2C127 26.2 127.7 25.4 129.3 25.4C130.3 25.4 131.3 25.7 131.9 26.2L132.9 25.2C131.9 24.5 130.7 24.2 129.3 24.2C127.1 24.2 125.5 25.3 125.5 27.2C125.5 28.9 126.5 29.8 128.5 30L130.3 30.1C131.5 30.2 132 30.7 132 31.7C132 32.9 131 33.5 129.4 33.5C128.1 33.5 127 33.2 126.2 32.4L125.2 33.4C126.4 34.4 127.7 34.7 129.4 34.7C131.9 34.7 133.6 33.6 133.6 31.7C133.4 29.7 132.1 29.1 130.4 28.9H130.5ZM143.2 24.3C141.5 24.3 140.5 24.6 139.6 25.7L140.6 26.7C141.2 25.8 141.8 25.5 143.2 25.5C145 25.5 145.8 26.3 145.8 27.7V28.7H142.7C140.4 28.7 139.1 29.9 139.1 31.7C139.1 32.4 139.4 33.2 139.9 33.7C140.6 34.5 141.3 34.7 142.8 34.7C143.342 34.746 143.887 34.681 144.403 34.509C144.919 34.3371 145.394 34.0618 145.8 33.7V34.7H147.3V27.7C147.2 25.4 145.9 24.3 143.2 24.3ZM145.8 31C145.8 31.9 145.6 32.4 145.3 32.7C144.6 33.3 143.8 33.4 143 33.4C141.3 33.4 140.7 32.8 140.7 31.7C140.7 30.5 141.4 29.9 143 29.9H145.9L145.8 31ZM153 25.6C154 25.6 154.6 25.9 155.4 26.8L156.4 25.8C155.3 24.7 154.4 24.3 153 24.3C150.4 24.3 148.4 26 148.4 29.6C148.4 33 150.4 34.8 153 34.8C154.4 34.8 155.3 34.5 156.3 33.3L155.3 32.3C154.5 33.3 153.9 33.5 153 33.5C152.543 33.5118 152.088 33.4189 151.673 33.2282C151.257 33.0376 150.89 32.7543 150.6 32.4C150.1 31.7 149.9 30.9 149.9 29.6C149.9 28.3 150.1 27.5 150.6 26.8C151.2 26 152.1 25.6 153 25.6ZM165.9 24.4H164.1L159.5 28.9V19.8H157.9V34.6H159.5V30.8L161.3 29L164.8 34.6H166.5L162.3 27.9L165.8 24.4H165.9ZM172.9 24.1C171.4 24.1 170.3 24.7 169.6 25.4C168.6 26.4 168.4 27.7 168.4 29.6C168.4 31.5 168.7 32.7 169.6 33.6C170.3 34.4 171.4 35 172.9 35C174.4 35 175.6 34.5 176.2 33.7C177.2 32.7 177.4 31.5 177.4 29.6C177.4 27.6 177.1 26.4 176.2 25.4C175.6 24.7 174.5 24.1 172.9 24.1ZM174.2 32.1C173.9 32.4 173.5 32.5 172.9 32.5C172.3 32.5 171.9 32.4 171.7 32.1C171.1 31.5 171.1 30.5 171.1 29.5C171.1 28.3 171.1 27.5 171.7 26.9C171.9 26.6 172.3 26.4 172.9 26.4C173.5 26.4 173.9 26.6 174.2 26.9C174.7 27.5 174.7 28.3 174.7 29.5C174.8 30.6 174.7 31.5 174.2 32.1ZM184.5 24.2L182.4 30.8L180.2 24.2H177.4L181.4 34.8H183.4L187.4 24.2H184.5ZM191.8 24.1C189 24.1 187.2 26.1 187.2 29.6C187.2 33.9 189.6 35 192.1 35C194.1 35 195.1 34.5 196.1 33.4L194.5 32C194.201 32.336 193.829 32.6004 193.414 32.7735C192.999 32.9466 192.549 33.024 192.1 33C190.6 33 189.8 32 189.8 30.5H196.4V29.4C196.4 26.4 194.8 24.2 191.8 24.2V24.1ZM189.8 28.5C189.8 28 189.8 27.7 190.1 27.4C190.4 26.7 190.9 26.2 191.9 26.2C192.284 26.2064 192.657 26.3229 192.976 26.5356C193.295 26.7484 193.547 27.0485 193.7 27.4C193.9 27.7 193.9 28 194 28.5H189.8ZM200.3 25.3V24.2H197.8V34.8H200.4V28.4C200.4 27.1 201.3 26.5 202.2 26.5C202.8 26.5 203.2 26.7 203.6 27.2L205.6 25.2C204.8 24.4 204.2 24.2 203.1 24.2C201.9 24.1 200.9 24.6 200.3 25.2V25.3ZM205.7 23V34.8H208.4V26.4H210.4V24.4H208.4V23.2C208.4 22.7 208.7 22.2 209.4 22.2H210.4V20.1H208.9C206.7 20.1 205.7 21.6 205.7 23.1V23ZM221.9 24.1C220.4 24.1 219.3 24.7 218.7 25.4C217.7 26.4 217.4 27.7 217.4 29.6C217.4 31.5 217.7 32.7 218.7 33.6C219.3 34.4 220.4 35 221.9 35C223.5 35 224.6 34.5 225.2 33.7C226.2 32.7 226.4 31.5 226.4 29.6C226.4 27.6 226.1 26.4 225.2 25.4C224.6 24.7 223.5 24.1 221.9 24.1ZM223.2 32.1C222.9 32.4 222.5 32.5 221.9 32.5C221.3 32.5 220.9 32.4 220.7 32.1C220.1 31.5 220.1 30.5 220.1 29.5C220.1 28.3 220.2 27.5 220.7 26.9C221 26.6 221.3 26.4 221.9 26.4C222.5 26.4 222.9 26.6 223.2 26.9C223.7 27.5 223.7 28.3 223.7 29.5C223.7 30.6 223.7 31.5 223.2 32.1ZM239 24.2L237.3 30.8L235.1 24.2H233.1L230.9 30.8L229.2 24.2H226.5L229.8 34.8H232L234.2 28.1L236.4 34.8H238.6L241.9 24.2H239.1H239ZM214.4 31.6V20H211.7V31.8C211.7 33.3 212.7 34.8 214.8 34.8H216.4V32.6H215.4C214.7 32.6 214.4 32.3 214.4 31.6ZM137.5 26L138.9 24.7H135.9V21.3H134.5V32C134.5 33.5 135.4 34.7 137.1 34.7H138.1V33.5H137.4C136.4 33.5 136 32.9 136 32V26H137.5Z" fill="#222426"/>
</g>
<defs>
<clipPath id="clip0_12_352">
<rect width="189" height="530" fill="white" transform="translate(96.5 -490)"/>
</clipPath>
</defs>
</svg>
