<svg width="27" height="27" viewBox="0 0 27 27" fill="none" xmlns="http://www.w3.org/2000/svg">
<g clip-path="url(#clip0_3_2322)">
<path opacity="0.5" d="M4.53003 4.38H22.33C22.8605 4.38 23.3692 4.59072 23.7442 4.96579C24.1193 5.34086 24.33 5.84957 24.33 6.38V18.18C24.9104 17.9748 25.4136 17.5961 25.7714 17.0952C26.1291 16.5944 26.3242 15.9955 26.33 15.38V5.38C26.33 4.58436 26.014 3.82129 25.4514 3.25868C24.8887 2.69608 24.1257 2.38 23.33 2.38H7.33003C6.71451 2.38585 6.11568 2.58089 5.61479 2.93867C5.1139 3.29645 4.73518 3.79965 4.53003 4.38Z" fill="#0A95FF"/>
<path d="M1.33002 7.38C1.33002 6.28 2.23002 5.38 3.33002 5.38H21.33C21.8605 5.38 22.3692 5.59072 22.7442 5.96579C23.1193 6.34086 23.33 6.84957 23.33 7.38V19.38C23.33 19.9104 23.1193 20.4191 22.7442 20.7942C22.3692 21.1693 21.8605 21.38 21.33 21.38H19.33V26.38L14.33 21.38H3.33002C2.79958 21.38 2.29088 21.1693 1.9158 20.7942C1.54073 20.4191 1.33002 19.9104 1.33002 19.38V7.38ZM11.93 18.68C12.63 18.68 13.13 18.18 13.13 17.48C13.13 16.78 12.63 16.28 11.93 16.28C11.33 16.28 10.73 16.68 10.73 17.48C10.73 18.18 11.23 18.58 11.93 18.68ZM14.13 13.28L15.13 12.38C15.43 11.98 15.53 11.48 15.53 10.98C15.53 9.98001 15.23 9.28 14.53 8.78C13.93 8.28 13.13 8.08 12.13 8.08C11.33 8.08 10.73 8.28 10.13 8.58C9.43002 9.08 9.13002 9.98 9.13002 11.38H11.03V11.28C11.03 10.88 11.03 10.58 11.23 10.28C11.43 9.88 11.73 9.68001 12.23 9.68001C12.73 9.68001 13.03 9.78 13.23 10.08C13.4623 10.3221 13.5919 10.6445 13.5919 10.98C13.5919 11.3155 13.4623 11.6379 13.23 11.88L12.83 12.18L11.43 13.48C11.13 13.88 11.03 14.48 11.03 15.08C11.03 15.08 11.03 15.28 11.23 15.28H12.73C12.93 15.28 12.93 15.18 12.93 15.08L13.03 14.38L13.53 13.68L14.13 13.28Z" fill="#0A95FF"/>
</g>
<defs>
<clipPath id="clip0_3_2322">
<rect width="26" height="26" fill="white" transform="translate(0.330017 0.380005)"/>
</clipPath>
</defs>
</svg>
