<svg width="27" height="27" viewBox="0 0 27 27" fill="none" xmlns="http://www.w3.org/2000/svg">
<path d="M12.33 1.08002C12.5177 0.867204 12.7485 0.696763 13.0071 0.580017C13.2658 0.463271 13.5463 0.402893 13.83 0.402893C14.1138 0.402893 14.3943 0.463271 14.6529 0.580017C14.9115 0.696763 15.1423 0.867204 15.33 1.08002L23.83 10.68C23.9671 10.8198 24.0601 10.9967 24.0975 11.1888C24.135 11.381 24.1152 11.5799 24.0407 11.7609C23.9661 11.9419 23.8401 12.097 23.6782 12.2071C23.5164 12.3171 23.3257 12.3773 23.13 12.38H4.53002C4.3343 12.3773 4.14368 12.3171 3.98181 12.2071C3.81993 12.097 3.69392 11.9419 3.61939 11.7609C3.54486 11.5799 3.52509 11.381 3.56253 11.1888C3.59997 10.9967 3.69298 10.8198 3.83002 10.68L12.33 1.08002Z" fill="#0A95FF"/>
<path opacity="0.5" d="M20.93 16.38H6.73002L13.83 24.38L20.83 16.38H20.93ZM15.33 25.68C15.1423 25.8928 14.9115 26.0633 14.6529 26.18C14.3943 26.2968 14.1138 26.3571 13.83 26.3571C13.5463 26.3571 13.2658 26.2968 13.0071 26.18C12.7485 26.0633 12.5177 25.8928 12.33 25.68L3.83002 16.08C3.69298 15.9402 3.59997 15.7633 3.56253 15.5712C3.52509 15.3791 3.54486 15.1802 3.61939 14.9992C3.69392 14.8182 3.81993 14.663 3.98181 14.5529C4.14368 14.4429 4.3343 14.3828 4.53002 14.38H23.13C23.3257 14.3828 23.5164 14.4429 23.6782 14.5529C23.8401 14.663 23.9661 14.8182 24.0407 14.9992C24.1152 15.1802 24.135 15.3791 24.0975 15.5712C24.0601 15.7633 23.9671 15.9402 23.83 16.08L15.33 25.68Z" fill="#0A95FF"/>
</svg>
